<svg version="1.0" xmlns="http://www.w3.org/2000/svg" xmlns:xlink="http://www.w3.org/1999/xlink" viewBox="0 0 340 250" preserveAspectRatio="xMidYMid meet" color-interpolation-filters="sRGB" style="margin: auto;">  <g data-v-5621db9c="" fill="#6AA84F" class="icon-text-wrapper icon-svg-group iconsvg" transform="translate(68.59500122070312,110.54173278808594)"><g class="iconsvg-imagesvg" transform="translate(0,0)"><g><rect fill="#6AA84F" fill-opacity="0" stroke-width="2" x="0" y="0" width="28.8" height="28.916533630531042" class="image-rect"></rect> <svg x="0" y="0" width="28.8" height="28.916533630531042" filtersec="colorsb6986660810" class="image-svg-svg primary"><svg xmlns="http://www.w3.org/2000/svg" viewBox="0 8.699999809265137 618.0999755859375 620.5999755859375"><path d="M136.5 183.6H149c1.7 0 3-1.4 3-3v-12.5c0-1.7-1.4-3-3-3h-12.5c-1.7 0-3 1.4-3 3v12.5c-.1 1.7 1.3 3 3 3zM112.9 280.3v14.8c0 2 1.6 3.6 3.6 3.6h14.8c2 0 3.6-1.6 3.6-3.6v-14.8c0-2-1.6-3.6-3.6-3.6h-14.8c-2 0-3.6 1.6-3.6 3.6zM36.1 305.8v-24.3c0-3.2-2.6-5.9-5.9-5.9H5.9c-3.2 0-5.9 2.6-5.9 5.9v24.3c0 3.2 2.6 5.9 5.9 5.9h24.3c3.2 0 5.9-2.7 5.9-5.9zM42.6 260.9h58.5c7.8 0 14.2-6.4 14.2-14.2v-58.5c0-7.8-6.4-14.2-14.2-14.2H42.6c-7.8 0-14.2 6.4-14.2 14.2v58.5c0 7.8 6.4 14.2 14.2 14.2zM154.2 148.9h65.5c8.7 0 15.9-7.1 15.9-15.9V67.6c0-8.7-7.1-15.9-15.9-15.9h-65.5c-8.7 0-15.9 7.1-15.9 15.9v65.5c.1 8.7 7.2 15.8 15.9 15.8zM478.5 160h83.7c4.9 0 9.5.9 13.8 2.6-13.5-23.1-29.9-44.3-48.7-63.1C471.2 43.4 393.6 8.7 307.9 8.7V123.8c53.5 0 102 21.5 137.2 56.4 6.4-12 19-20.2 33.4-20.2zM261.7 118.2c-2.3 0-4.1 1.8-4.1 4.1v16.9c0 2.3 1.8 4.1 4.1 4.1h16.9c2.3 0 4.1-1.8 4.1-4.1v-16.9c0-2.3-1.8-4.1-4.1-4.1h-16.9zM77.5 153h26.1c3.5 0 6.3-2.8 6.3-6.3v-26.1c0-3.5-2.8-6.3-6.3-6.3H77.5c-3.5 0-6.3 2.8-6.3 6.3v26.1c0 3.4 2.9 6.3 6.3 6.3zM282.1 530.8h-13.2c-1.8 0-3.2 1.4-3.2 3.2v13.2c0 1.8 1.4 3.2 3.2 3.2h13.2c1.8 0 3.2-1.4 3.2-3.2V534c0-1.8-1.5-3.2-3.2-3.2zM599.8 281.4c0 20.7-16.9 37.7-37.7 37.7H503c0 107.8-87.4 195.1-195.2 195.1V629.3c85.7 0 163.3-34.7 219.4-90.9 56.1-56.1 90.9-133.7 90.9-219.4 0-37-6.5-72.5-18.4-105.4v67.8zM112.1 473.8H78.8c-4.4 0-8.1 3.6-8.1 8.1v33.3c0 4.4 3.6 8.1 8.1 8.1h33.3c4.4 0 8.1-3.6 8.1-8.1v-33.3c-.1-4.5-3.7-8.1-8.1-8.1zM282 460.2v-24.3c0-3.2-2.6-5.9-5.9-5.9h-24.3c-3.2 0-5.9 2.6-5.9 5.9v24.3c0 3.2 2.6 5.9 5.9 5.9h24.3c3.3 0 5.9-2.7 5.9-5.9zM230 493.4h-65.4c-8.7 0-15.9 7.1-15.9 15.9v65.4c0 8.7 7.1 15.9 15.9 15.9H230c8.7 0 15.9-7.1 15.9-15.9v-65.4c-.1-8.7-7.2-15.9-15.9-15.9zM253.2 390v-48.6c0-6.5-5.3-11.8-11.8-11.8h-48.6c-6.5 0-11.8 5.3-11.8 11.8V390c0 6.5 5.3 11.8 11.8 11.8h48.6c6.5 0 11.8-5.3 11.8-11.8z" fill="#3D85C6"></path><linearGradient id="0d5901eb-4ffe-4eeb-a5cb-43a8a9179168" gradientUnits="userSpaceOnUse" x1="20.209" y1="314.098" x2="582.468" y2="314.098"><stop offset="0" stop-color="#3D85C6"></stop><stop offset="1" stop-color="#6AA84F"></stop></linearGradient><path d="M179.9 300.5c2.1.7 4.3 1.1 6.6 1.1h83.7c2.3 0 4.6-.4 6.6-1.1l37.4 37.4c-1.3 2.7-2 5.7-2 8.8v83.7c0 11.2 9.1 20.3 20.3 20.3h83.7c11.2 0 20.3-9.1 20.3-20.3v-83.7c0-3.2-.7-6.2-2-8.8l37.4-37.4c2.1.7 4.3 1.1 6.6 1.1h83.7c11.2 0 20.3-9.1 20.3-20.3v-83.7c0-11.2-9.1-20.3-20.3-20.3h-83.7c-11.2 0-20.3 9.1-20.3 20.3v83.7c0 2.8.6 5.5 1.6 7.9l-38.1 38.1c-1.8-.5-3.6-.8-5.6-.8h-83.7c-1.9 0-3.8.3-5.6.8l-38.1-38.1c1-2.4 1.6-5.1 1.6-7.9v-83.7c0-11.2-9.1-20.3-20.3-20.3h-83.7c-11.2 0-20.3 9.1-20.3 20.3v83.7c0 2.8.6 5.5 1.6 7.9l-38.1 38.1c-1.8-.5-3.6-.8-5.6-.8H40.5c-11.2 0-20.3 9.1-20.3 20.3v83.7c0 11.2 9.1 20.3 20.3 20.3h83.7c11.2 0 20.3-9.1 20.3-20.3v-83.7c0-3.2-.7-6.2-2-8.8l37.4-37.5z" fill="url(#0d5901eb-4ffe-4eeb-a5cb-43a8a9179168)"></path><path d="M189.8 434.5c-1.6 0-2.9 1.3-2.9 2.9v12.1c0 1.6 1.3 2.9 2.9 2.9H202c1.6 0 2.9-1.3 2.9-2.9v-12.1c0-1.6-1.3-2.9-2.9-2.9h-12.2z" fill="#3D85C6"></path></svg></svg> <!----></g></g> <g transform="translate(43.9899959564209,3.916534423828125)"><g data-gra="path-name" fill-rule="" class="tp-name iconsvg-namesvg"><g transform="scale(1)"><g><path d="M14.62 0L6.27-15.02L6.27 0L2.09 0L2.09-20.49L7.68-20.49L15.82-5.22L15.82-20.49L19.97-20.49L19.97 0L14.62 0ZM28.23-12.10L40.46-12.10L40.46-8.45L28.23-8.45L28.23 0L23.90 0L23.90-10.69Q23.93-15.30 24.76-16.74L24.76-16.74Q25.80-18.77 27.79-19.63Q29.77-20.49 33.36-20.49L33.36-20.49L40.46-20.49L40.46-16.83L33.91-16.83Q30.87-16.77 30.01-16.34L30.01-16.34Q28.29-15.64 28.23-13.21L28.23-13.21L28.23-12.10ZM41.59-9.77L48.75-9.77L48.75-6.08L41.59-6.08L41.59-9.77ZM58.86-20.49L66.20-20.49L66.20-16.83L60.52-16.83Q58.31-16.83 57.29-16.53Q56.28-16.22 55.60-15.33L55.60-15.33Q55.14-14.71 54.97-14.10Q54.80-13.49 54.68-12.01L54.68-12.01L66.20-12.01L66.20-8.36L54.68-8.36Q54.93-5.71 56.25-4.68Q57.57-3.66 60.73-3.66L60.73-3.66L66.20-3.66L66.20 0L60.52 0Q58.21 0 56.46-0.28L56.46-0.28Q53.70-0.74 52.07-2.70L52.07-2.70Q49.73-5.53 49.73-10.35L49.73-10.35Q49.73-15.70 53.02-18.68L53.02-18.68Q54.16-19.69 55.43-20.09Q56.71-20.49 58.86-20.49L58.86-20.49ZM73.66-20.49L73.66 0L69.55 0L69.55-20.49L73.66-20.49ZM81.28-9.09L89.95-9.09L89.95-5.90L81.28-5.90Q81.41-4.42 82.24-3.81Q83.06-3.19 84.94-3.19L84.94-3.19L89.95-3.19L89.95 0L84.48 0Q82.70 0 81.57-0.32Q80.45-0.65 79.47-1.38L79.47-1.38Q76.74-3.50 76.74-7.68L76.74-7.68Q76.74-10.38 78.18-12.41L78.18-12.41Q79.16-13.79 80.55-14.38Q81.93-14.96 84.17-14.96L84.17-14.96L89.95-14.96L89.95-11.77L84.48-11.77Q82.79-11.77 82.11-11.20Q81.44-10.63 81.28-9.09L81.28-9.09ZM93.29 0L93.29-14.96L108.41-14.96Q110.47-14.96 111.54-14.65Q112.62-14.35 113.35-13.58L113.35-13.58Q114.71-12.10 114.71-9.52L114.71-9.52L114.71 0L110.59 0L110.59-8.88Q110.59-9.95 110.50-10.38Q110.40-10.81 110.07-11.15L110.07-11.15Q109.42-11.77 108.13-11.77L108.13-11.77L105.95-11.77L105.95 0L101.83 0L101.83-11.77L97.41-11.77L97.41 0L93.29 0ZM122.11-9.09L130.77-9.09L130.77-5.90L122.11-5.90Q122.23-4.42 123.06-3.81Q123.89-3.19 125.76-3.19L125.76-3.19L130.77-3.19L130.77 0L125.30 0Q123.52 0 122.40-0.32Q121.28-0.65 120.30-1.38L120.30-1.38Q117.56-3.50 117.56-7.68L117.56-7.68Q117.56-10.38 119.01-12.41L119.01-12.41Q119.99-13.79 121.37-14.38Q122.75-14.96 125.00-14.96L125.00-14.96L130.77-14.96L130.77-11.77L125.30-11.77Q123.61-11.77 122.94-11.20Q122.26-10.63 122.11-9.09L122.11-9.09ZM134.12 0L134.12-14.96L142.05-14.96Q143.83-14.96 144.76-14.70Q145.70-14.44 146.47-13.76L146.47-13.76Q148.04-12.32 148.04-9.22L148.04-9.22L148.04 0L143.92 0L143.92-9.68Q143.92-10.78 143.43-11.27Q142.94-11.77 141.80-11.77L141.80-11.77L138.24-11.77L138.24 0L134.12 0ZM150.37-14.96L152.98-14.96L152.98-20.49L157.10-20.49L157.10-14.96L160.91-14.96L160.91-11.77L157.10-11.77L157.10-6.33Q157.10-4.42 157.44-3.93L157.44-3.93Q157.96-3.19 159.28-3.19L159.28-3.19L160.91-3.19L160.91 0L157.93 0Q155.25 0 154.12-1.29Q152.98-2.58 152.98-5.62L152.98-5.62L152.98-11.77L150.37-11.77L150.37-14.96Z" transform="translate(-2.0899999141693115, 20.489700036140224) skewX(0)"></path></g></g></g></g></g><defs v-gra="od"></defs></svg>