<svg xmlns="http://www.w3.org/2000/svg" xmlns:svg="http://www.w3.org/2000/svg" viewBox="0 0 220 50"><!----><defs><linearGradient x1="0" y1="1" x2="0" y2="0" id="6f195941-2d1b-4c09-95a0-c836451bf2f4"><stop offset="0%" stop-color="#ff51f9"></stop><stop offset="50%" stop-color="#a348ff"></stop><stop offset="100%" stop-color="#3978ff"></stop></linearGradient></defs><defs><filter id="2a1203b7-6873-4992-a72d-b2b9631fbaac" filterUnits="userSpaceOnUse"></filter><linearGradient x1="0" y1="1" x2="0" y2="0" id="661596bf-bb32-476b-bcf2-75b54fe162d1"><stop offset="0%" stop-color="#ff51f9"></stop><stop offset="50%" stop-color="#a348ff"></stop><stop offset="100%" stop-color="#3978ff"></stop></linearGradient></defs><mask id="76dafd57-bda3-4df7-b893-86545da41bbd"><g class="iconsvg-imagesvg" filter="url(#2a1203b7-6873-4992-a72d-b2b9631fbaac)" id="svg_9"><g id="svg_10"><rect fill="#ff51f9" fill-opacity="0" stroke-width="2" x="0" y="0" width="28.8" height="28.91653" class="image-rect" id="svg_11"></rect><g id="svg_8"><svg x="0" y="0" width="28.8" height="28.91653" class="image-svg-svg primary" id="svg_2"><g id="svg_19"><svg xmlns="http://www.w3.org/2000/svg" viewBox="0 8.699999809265137 618.0999755859375 620.5999755859375" id="svg_12"><path d="M136.5,183.6L149,183.6C150.7,183.6 152,182.2 152,180.6L152,168.1C152,166.4 150.6,165.1 149,165.1L136.5,165.1C134.8,165.1 133.5,166.5 133.5,168.1L133.5,180.6C133.4,182.3 134.8,183.6 136.5,183.6zM112.9,280.3L112.9,295.1C112.9,297.1 114.5,298.7 116.5,298.7L131.3,298.7C133.3,298.7 134.9,297.1 134.9,295.1L134.9,280.3C134.9,278.3 133.3,276.7 131.3,276.7L116.5,276.7C114.5,276.7 112.9,278.3 112.9,280.3zM36.1,305.8L36.1,281.5C36.1,278.3 33.5,275.6 30.2,275.6L5.9,275.6C2.7,275.6 0,278.2 0,281.5L0,305.8C0,309 2.6,311.7 5.9,311.7L30.2,311.7C33.4,311.7 36.1,309 36.1,305.8zM42.6,260.9L101.1,260.9C108.9,260.9 115.3,254.5 115.3,246.7L115.3,188.2C115.3,180.4 108.9,174 101.1,174L42.6,174C34.8,174 28.4,180.4 28.4,188.2L28.4,246.7C28.4,254.5 34.8,260.9 42.6,260.9zM154.2,148.9L219.7,148.9C228.4,148.9 235.6,141.8 235.6,133L235.6,67.6C235.6,58.9 228.5,51.7 219.7,51.7L154.2,51.7C145.5,51.7 138.3,58.8 138.3,67.6L138.3,133.1C138.4,141.8 145.5,148.9 154.2,148.9zM478.5,160L562.2,160C567.1,160 571.7,160.9 576,162.6C562.5,139.5 546.1,118.3 527.3,99.5C471.2,43.4 393.6,8.7 307.9,8.7L307.9,123.8C361.4,123.8 409.9,145.3 445.1,180.2C451.5,168.2 464.1,160 478.5,160zM261.7,118.2C259.4,118.2 257.6,120 257.6,122.3L257.6,139.2C257.6,141.5 259.4,143.3 261.7,143.3L278.6,143.3C280.9,143.3 282.7,141.5 282.7,139.2L282.7,122.3C282.7,120 280.9,118.2 278.6,118.2L261.7,118.2zM77.5,153L103.6,153C107.1,153 109.9,150.2 109.9,146.7L109.9,120.6C109.9,117.1 107.1,114.3 103.6,114.3L77.5,114.3C74,114.3 71.2,117.1 71.2,120.6L71.2,146.7C71.2,150.1 74.1,153 77.5,153zM282.1,530.8L268.9,530.8C267.1,530.8 265.7,532.2 265.7,534L265.7,547.2C265.7,549 267.1,550.4 268.9,550.4L282.1,550.4C283.9,550.4 285.3,549 285.3,547.2L285.3,534C285.3,532.2 283.8,530.8 282.1,530.8zM599.8,281.4C599.8,302.1 582.9,319.1 562.1,319.1L503,319.1C503,426.9 415.6,514.2 307.8,514.2L307.8,629.3C393.5,629.3 471.1,594.6 527.2,538.4C583.3,482.3 618.1,404.7 618.1,319C618.1,282 611.6,246.5 599.7,213.6L599.7,281.4L599.8,281.4zM112.1,473.8L78.8,473.8C74.4,473.8 70.7,477.4 70.7,481.9L70.7,515.2C70.7,519.6 74.3,523.3 78.8,523.3L112.1,523.3C116.5,523.3 120.2,519.7 120.2,515.2L120.2,481.9C120.1,477.4 116.5,473.8 112.1,473.8zM282,460.2L282,435.9C282,432.7 279.4,430 276.1,430L251.8,430C248.6,430 245.9,432.6 245.9,435.9L245.9,460.2C245.9,463.4 248.5,466.1 251.8,466.1L276.1,466.1C279.4,466.1 282,463.4 282,460.2zM230,493.4L164.6,493.4C155.9,493.4 148.7,500.5 148.7,509.3L148.7,574.7C148.7,583.4 155.8,590.6 164.6,590.6L230,590.6C238.7,590.6 245.9,583.5 245.9,574.7L245.9,509.3C245.8,500.6 238.7,493.4 230,493.4zM253.2,390L253.2,341.4C253.2,334.9 247.9,329.6 241.4,329.6L192.8,329.6C186.3,329.6 181,334.9 181,341.4L181,390C181,396.5 186.3,401.8 192.8,401.8L241.4,401.8C247.9,401.8 253.2,396.5 253.2,390z" fill="#25bcbd" id="svg_16"></path><linearGradient id="svg_15" x1="0.00002" y1="0.50018" x2="0.99994" y2="0.50018"><stop offset="0" stop-color="#25bcbd"></stop><stop offset="1" stop-color="#c2d72e"></stop></linearGradient><path d="M179.9,300.5C182,301.2 184.2,301.6 186.5,301.6L270.2,301.6C272.5,301.6 274.8,301.2 276.8,300.5L314.2,337.9C312.9,340.6 312.2,343.6 312.2,346.7L312.2,430.4C312.2,441.6 321.3,450.7 332.5,450.7L416.2,450.7C427.4,450.7 436.5,441.6 436.5,430.4L436.5,346.7C436.5,343.5 435.8,340.5 434.5,337.9L471.9,300.5C474,301.2 476.2,301.6 478.5,301.6L562.2,301.6C573.4,301.6 582.5,292.5 582.5,281.3L582.5,197.6C582.5,186.4 573.4,177.3 562.2,177.3L478.5,177.3C467.3,177.3 458.2,186.4 458.2,197.6L458.2,281.3C458.2,284.1 458.8,286.8 459.8,289.2L421.7,327.3C419.9,326.8 418.1,326.5 416.1,326.5L332.4,326.5C330.5,326.5 328.6,326.8 326.8,327.3L288.7,289.2C289.7,286.8 290.3,284.1 290.3,281.3L290.3,197.6C290.3,186.4 281.2,177.3 270,177.3L186.3,177.3C175.1,177.3 166,186.4 166,197.6L166,281.3C166,284.1 166.6,286.8 167.6,289.2L129.5,327.3C127.7,326.8 125.9,326.5 123.9,326.5L40.5,326.5C29.3,326.5 20.2,335.6 20.2,346.8L20.2,430.5C20.2,441.7 29.3,450.8 40.5,450.8L124.2,450.8C135.4,450.8 144.5,441.7 144.5,430.5L144.5,346.8C144.5,343.6 143.8,340.6 142.5,338L179.9,300.5z" fill="url(#svg_15)" id="svg_14"></path><path d="M189.8,434.5C188.2,434.5 186.9,435.8 186.9,437.4L186.9,449.5C186.9,451.1 188.2,452.4 189.8,452.4L202,452.4C203.6,452.4 204.9,451.1 204.9,449.5L204.9,437.4C204.9,435.8 203.6,434.5 202,434.5L189.8,434.5z" fill="#25bcbd" id="svg_13"></path></svg></g></svg></g><!----></g></g></mask><g style="pointer-events:all" opacity="1"><title style="pointer-events:inherit">Layer 1</title><g id="svg_28" style="pointer-events:inherit"><g class="tp-name iconsvg-namesvg" fill="url(#6f195941-2d1b-4c09-95a0-c836451bf2f4)" id="svg_29" style="pointer-events:inherit"><g transform="translate(68.59500122070312,110.54173278808594) scale(1) " id="svg_30" style="pointer-events:inherit"><g id="svg_31" style="pointer-events:inherit"><path d="M-5.48,-74.59377L-13.83,-89.61377L-13.83,-74.59377L-18.01,-74.59377L-18.01,-95.08377L-12.42,-95.08377L-4.28,-79.81377L-4.28,-95.08377L-0.13,-95.08377L-0.13,-74.59377L-5.48,-74.59377zM8.13,-86.69377L20.36,-86.69377L20.36,-83.04377L8.13,-83.04377L8.13,-74.59377L3.8,-74.59377L3.8,-85.28377Q3.83,-89.89377 4.66,-91.33377L4.66,-91.33377Q5.7,-93.36377 7.69,-94.22377Q9.67,-95.08377 13.26,-95.08377L13.26,-95.08377L20.36,-95.08377L20.36,-91.42377L13.81,-91.42377Q10.77,-91.36377 9.91,-90.93377L9.91,-90.93377Q8.19,-90.23377 8.13,-87.80377L8.13,-87.80377L8.13,-86.69377zM21.49,-84.36377L28.65,-84.36377L28.65,-80.67377L21.49,-80.67377L21.49,-84.36377zM38.76,-95.08377L46.1,-95.08377L46.1,-91.42377L40.42,-91.42377Q38.21,-91.42377 37.19,-91.12377Q36.18,-90.81377 35.5,-89.92377L35.5,-89.92377Q35.04,-89.30377 34.87,-88.69377Q34.7,-88.08377 34.58,-86.60377L34.58,-86.60377L46.1,-86.60377L46.1,-82.95377L34.58,-82.95377Q34.83,-80.30377 36.15,-79.27377Q37.47,-78.25377 40.63,-78.25377L40.63,-78.25377L46.1,-78.25377L46.1,-74.59377L40.42,-74.59377Q38.11,-74.59377 36.36,-74.87377L36.36,-74.87377Q33.6,-75.33377 31.97,-77.29377L31.97,-77.29377Q29.63,-80.12377 29.63,-84.94377L29.63,-84.94377Q29.63,-90.29377 32.92,-93.27377L32.92,-93.27377Q34.06,-94.28377 35.33,-94.68377Q36.61,-95.08377 38.76,-95.08377L38.76,-95.08377zM53.56,-95.08377L53.56,-74.59377L49.45,-74.59377L49.45,-95.08377L53.56,-95.08377zM61.18,-83.68377L69.85,-83.68377L69.85,-80.49377L61.18,-80.49377Q61.31,-79.01377 62.14,-78.40377Q62.96,-77.78377 64.84,-77.78377L64.84,-77.78377L69.85,-77.78377L69.85,-74.59377L64.38,-74.59377Q62.6,-74.59377 61.47,-74.91377Q60.35,-75.24377 59.37,-75.97377L59.37,-75.97377Q56.64,-78.09377 56.64,-82.27377L56.64,-82.27377Q56.64,-84.97377 58.08,-87.00377L58.08,-87.00377Q59.06,-88.38377 60.45,-88.97377Q61.83,-89.55377 64.07,-89.55377L64.07,-89.55377L69.85,-89.55377L69.85,-86.36377L64.38,-86.36377Q62.69,-86.36377 62.01,-85.79377Q61.34,-85.22377 61.18,-83.68377L61.18,-83.68377zM73.19,-74.59377L73.19,-89.55377L88.31,-89.55377Q90.37,-89.55377 91.44,-89.24377Q92.52,-88.94377 93.25,-88.17377L93.25,-88.17377Q94.61,-86.69377 94.61,-84.11377L94.61,-84.11377L94.61,-74.59377L90.49,-74.59377L90.49,-83.47377Q90.49,-84.54377 90.4,-84.97377Q90.3,-85.40377 89.97,-85.74377L89.97,-85.74377Q89.32,-86.36377 88.03,-86.36377L88.03,-86.36377L85.85,-86.36377L85.85,-74.59377L81.73,-74.59377L81.73,-86.36377L77.31,-86.36377L77.31,-74.59377L73.19,-74.59377zM102.01,-83.68377L110.67,-83.68377L110.67,-80.49377L102.01,-80.49377Q102.13,-79.01377 102.96,-78.40377Q103.79,-77.78377 105.66,-77.78377L105.66,-77.78377L110.67,-77.78377L110.67,-74.59377L105.2,-74.59377Q103.42,-74.59377 102.3,-74.91377Q101.18,-75.24377 100.2,-75.97377L100.2,-75.97377Q97.46,-78.09377 97.46,-82.27377L97.46,-82.27377Q97.46,-84.97377 98.91,-87.00377L98.91,-87.00377Q99.89,-88.38377 101.27,-88.97377Q102.65,-89.55377 104.9,-89.55377L104.9,-89.55377L110.67,-89.55377L110.67,-86.36377L105.2,-86.36377Q103.51,-86.36377 102.84,-85.79377Q102.16,-85.22377 102.01,-83.68377L102.01,-83.68377zM114.02,-74.59377L114.02,-89.55377L121.95,-89.55377Q123.73,-89.55377 124.66,-89.29377Q125.6,-89.03377 126.37,-88.35377L126.37,-88.35377Q127.94,-86.91377 127.94,-83.81377L127.94,-83.81377L127.94,-74.59377L123.82,-74.59377L123.82,-84.27377Q123.82,-85.37377 123.33,-85.86377Q122.84,-86.36377 121.7,-86.36377L121.7,-86.36377L118.14,-86.36377L118.14,-74.59377L114.02,-74.59377zM130.27,-89.55377L132.88,-89.55377L132.88,-95.08377L137,-95.08377L137,-89.55377L140.81,-89.55377L140.81,-86.36377L137,-86.36377L137,-80.92377Q137,-79.01377 137.34,-78.52377L137.34,-78.52377Q137.86,-77.78377 139.18,-77.78377L139.18,-77.78377L140.81,-77.78377L140.81,-74.59377L137.83,-74.59377Q135.15,-74.59377 134.02,-75.88377Q132.88,-77.17377 132.88,-80.21377L132.88,-80.21377L132.88,-86.36377L130.27,-86.36377L130.27,-89.55377z" id="svg_32" style="pointer-events:inherit"></path></g></g></g></g><g stroke="null" id="svg_20" style="pointer-events:inherit"><g transform="translate(6,6) scale(0.06)" stroke="null" id="svg_23" style="pointer-events:inherit"><path stroke="null" d="M136.5,183.6L149,183.6C150.7,183.6 152,182.2 152,180.6L152,168.1C152,166.4 150.6,165.1 149,165.1L136.5,165.1C134.8,165.1 133.5,166.5 133.5,168.1L133.5,180.6C133.4,182.3 134.8,183.6 136.5,183.6zM112.9,280.3L112.9,295.1C112.9,297.1 114.5,298.7 116.5,298.7L131.3,298.7C133.3,298.7 134.9,297.1 134.9,295.1L134.9,280.3C134.9,278.3 133.3,276.7 131.3,276.7L116.5,276.7C114.5,276.7 112.9,278.3 112.9,280.3zM36.1,305.8L36.1,281.5C36.1,278.3 33.5,275.6 30.2,275.6L5.9,275.6C2.7,275.6 0,278.2 0,281.5L0,305.8C0,309 2.6,311.7 5.9,311.7L30.2,311.7C33.4,311.7 36.1,309 36.1,305.8zM42.6,260.9L101.1,260.9C108.9,260.9 115.3,254.5 115.3,246.7L115.3,188.2C115.3,180.4 108.9,174 101.1,174L42.6,174C34.8,174 28.4,180.4 28.4,188.2L28.4,246.7C28.4,254.5 34.8,260.9 42.6,260.9zM154.2,148.9L219.7,148.9C228.4,148.9 235.6,141.8 235.6,133L235.6,67.6C235.6,58.9 228.5,51.7 219.7,51.7L154.2,51.7C145.5,51.7 138.3,58.8 138.3,67.6L138.3,133.1C138.4,141.8 145.5,148.9 154.2,148.9zM478.5,160L562.2,160C567.1,160 571.7,160.9 576,162.6C562.5,139.5 546.1,118.3 527.3,99.5C471.2,43.4 393.6,8.7 307.9,8.7L307.9,123.8C361.4,123.8 409.9,145.3 445.1,180.2C451.5,168.2 464.1,160 478.5,160zM261.7,118.2C259.4,118.2 257.6,120 257.6,122.3L257.6,139.2C257.6,141.5 259.4,143.3 261.7,143.3L278.6,143.3C280.9,143.3 282.7,141.5 282.7,139.2L282.7,122.3C282.7,120 280.9,118.2 278.6,118.2L261.7,118.2zM77.5,153L103.6,153C107.1,153 109.9,150.2 109.9,146.7L109.9,120.6C109.9,117.1 107.1,114.3 103.6,114.3L77.5,114.3C74,114.3 71.2,117.1 71.2,120.6L71.2,146.7C71.2,150.1 74.1,153 77.5,153zM282.1,530.8L268.9,530.8C267.1,530.8 265.7,532.2 265.7,534L265.7,547.2C265.7,549 267.1,550.4 268.9,550.4L282.1,550.4C283.9,550.4 285.3,549 285.3,547.2L285.3,534C285.3,532.2 283.8,530.8 282.1,530.8zM599.8,281.4C599.8,302.1 582.9,319.1 562.1,319.1L503,319.1C503,426.9 415.6,514.2 307.8,514.2L307.8,629.3C393.5,629.3 471.1,594.6 527.2,538.4C583.3,482.3 618.1,404.7 618.1,319C618.1,282 611.6,246.5 599.7,213.6L599.7,281.4L599.8,281.4zM112.1,473.8L78.8,473.8C74.4,473.8 70.7,477.4 70.7,481.9L70.7,515.2C70.7,519.6 74.3,523.3 78.8,523.3L112.1,523.3C116.5,523.3 120.2,519.7 120.2,515.2L120.2,481.9C120.1,477.4 116.5,473.8 112.1,473.8zM282,460.2L282,435.9C282,432.7 279.4,430 276.1,430L251.8,430C248.6,430 245.9,432.6 245.9,435.9L245.9,460.2C245.9,463.4 248.5,466.1 251.8,466.1L276.1,466.1C279.4,466.1 282,463.4 282,460.2zM230,493.4L164.6,493.4C155.9,493.4 148.7,500.5 148.7,509.3L148.7,574.7C148.7,583.4 155.8,590.6 164.6,590.6L230,590.6C238.7,590.6 245.9,583.5 245.9,574.7L245.9,509.3C245.8,500.6 238.7,493.4 230,493.4zM253.2,390L253.2,341.4C253.2,334.9 247.9,329.6 241.4,329.6L192.8,329.6C186.3,329.6 181,334.9 181,341.4L181,390C181,396.5 186.3,401.8 192.8,401.8L241.4,401.8C247.9,401.8 253.2,396.5 253.2,390z" fill="url(#6f195941-2d1b-4c09-95a0-c836451bf2f4)" id="svg_40" style="pointer-events:inherit"></path><linearGradient id="svg_39" x1="0.00002" y1="0.50018" x2="0.99994" y2="0.50018" style="pointer-events:inherit"><stop offset="0" stop-color="#25bcbd" style="pointer-events:inherit"></stop><stop offset="1" stop-color="#c2d72e" style="pointer-events:inherit"></stop></linearGradient><path stroke="null" d="M179.9,300.5C182,301.2 184.2,301.6 186.5,301.6L270.2,301.6C272.5,301.6 274.8,301.2 276.8,300.5L314.2,337.9C312.9,340.6 312.2,343.6 312.2,346.7L312.2,430.4C312.2,441.6 321.3,450.7 332.5,450.7L416.2,450.7C427.4,450.7 436.5,441.6 436.5,430.4L436.5,346.7C436.5,343.5 435.8,340.5 434.5,337.9L471.9,300.5C474,301.2 476.2,301.6 478.5,301.6L562.2,301.6C573.4,301.6 582.5,292.5 582.5,281.3L582.5,197.6C582.5,186.4 573.4,177.3 562.2,177.3L478.5,177.3C467.3,177.3 458.2,186.4 458.2,197.6L458.2,281.3C458.2,284.1 458.8,286.8 459.8,289.2L421.7,327.3C419.9,326.8 418.1,326.5 416.1,326.5L332.4,326.5C330.5,326.5 328.6,326.8 326.8,327.3L288.7,289.2C289.7,286.8 290.3,284.1 290.3,281.3L290.3,197.6C290.3,186.4 281.2,177.3 270,177.3L186.3,177.3C175.1,177.3 166,186.4 166,197.6L166,281.3C166,284.1 166.6,286.8 167.6,289.2L129.5,327.3C127.7,326.8 125.9,326.5 123.9,326.5L40.5,326.5C29.3,326.5 20.2,335.6 20.2,346.8L20.2,430.5C20.2,441.7 29.3,450.8 40.5,450.8L124.2,450.8C135.4,450.8 144.5,441.7 144.5,430.5L144.5,346.8C144.5,343.6 143.8,340.6 142.5,338L179.9,300.5z" fill="url(#svg_39)" id="svg_38" style="pointer-events:inherit"></path><path stroke="null" d="M189.8,434.5C188.2,434.5 186.9,435.8 186.9,437.4L186.9,449.5C186.9,451.1 188.2,452.4 189.8,452.4L202,452.4C203.6,452.4 204.9,451.1 204.9,449.5L204.9,437.4C204.9,435.8 203.6,434.5 202,434.5L189.8,434.5z" fill="#25bcbd" id="svg_37" style="pointer-events:inherit"></path></g></g></g></svg>