<svg width="50" height="50" viewBox="0 0 50 50" fill="none" xmlns="http://www.w3.org/2000/svg">
  <defs>
    <linearGradient x1="0" y1="1" x2="0" y2="0" id="paint0_linear">
      <stop offset="0%" stop-color="#ff51f9"></stop>
      <stop offset="50%" stop-color="#a348ff"></stop>
      <stop offset="100%" stop-color="#3978ff"></stop>
    </linearGradient>
    <linearGradient id="paint1_linear" x1="0.00002" y1="0.50018" x2="0.99994" y2="0.50018"
      style="pointer-events:inherit">
      <stop offset="0" stop-color="#25bcbd"></stop>
      <stop offset="1" stop-color="#c2d72e"></stop>
    </linearGradient>
  </defs>
  <g transform="translate(6,6) scale(0.06)" stroke="null" id="svg_23" style="pointer-events:inherit">
    <path stroke="null"
      d="M136.5,183.6L149,183.6C150.7,183.6 152,182.2 152,180.6L152,168.1C152,166.4 150.6,165.1 149,165.1L136.5,165.1C134.8,165.1 133.5,166.5 133.5,168.1L133.5,180.6C133.4,182.3 134.8,183.6 136.5,183.6zM112.9,280.3L112.9,295.1C112.9,297.1 114.5,298.7 116.5,298.7L131.3,298.7C133.3,298.7 134.9,297.1 134.9,295.1L134.9,280.3C134.9,278.3 133.3,276.7 131.3,276.7L116.5,276.7C114.5,276.7 112.9,278.3 112.9,280.3zM36.1,305.8L36.1,281.5C36.1,278.3 33.5,275.6 30.2,275.6L5.9,275.6C2.7,275.6 0,278.2 0,281.5L0,305.8C0,309 2.6,311.7 5.9,311.7L30.2,311.7C33.4,311.7 36.1,309 36.1,305.8zM42.6,260.9L101.1,260.9C108.9,260.9 115.3,254.5 115.3,246.7L115.3,188.2C115.3,180.4 108.9,174 101.1,174L42.6,174C34.8,174 28.4,180.4 28.4,188.2L28.4,246.7C28.4,254.5 34.8,260.9 42.6,260.9zM154.2,148.9L219.7,148.9C228.4,148.9 235.6,141.8 235.6,133L235.6,67.6C235.6,58.9 228.5,51.7 219.7,51.7L154.2,51.7C145.5,51.7 138.3,58.8 138.3,67.6L138.3,133.1C138.4,141.8 145.5,148.9 154.2,148.9zM478.5,160L562.2,160C567.1,160 571.7,160.9 576,162.6C562.5,139.5 546.1,118.3 527.3,99.5C471.2,43.4 393.6,8.7 307.9,8.7L307.9,123.8C361.4,123.8 409.9,145.3 445.1,180.2C451.5,168.2 464.1,160 478.5,160zM261.7,118.2C259.4,118.2 257.6,120 257.6,122.3L257.6,139.2C257.6,141.5 259.4,143.3 261.7,143.3L278.6,143.3C280.9,143.3 282.7,141.5 282.7,139.2L282.7,122.3C282.7,120 280.9,118.2 278.6,118.2L261.7,118.2zM77.5,153L103.6,153C107.1,153 109.9,150.2 109.9,146.7L109.9,120.6C109.9,117.1 107.1,114.3 103.6,114.3L77.5,114.3C74,114.3 71.2,117.1 71.2,120.6L71.2,146.7C71.2,150.1 74.1,153 77.5,153zM282.1,530.8L268.9,530.8C267.1,530.8 265.7,532.2 265.7,534L265.7,547.2C265.7,549 267.1,550.4 268.9,550.4L282.1,550.4C283.9,550.4 285.3,549 285.3,547.2L285.3,534C285.3,532.2 283.8,530.8 282.1,530.8zM599.8,281.4C599.8,302.1 582.9,319.1 562.1,319.1L503,319.1C503,426.9 415.6,514.2 307.8,514.2L307.8,629.3C393.5,629.3 471.1,594.6 527.2,538.4C583.3,482.3 618.1,404.7 618.1,319C618.1,282 611.6,246.5 599.7,213.6L599.7,281.4L599.8,281.4zM112.1,473.8L78.8,473.8C74.4,473.8 70.7,477.4 70.7,481.9L70.7,515.2C70.7,519.6 74.3,523.3 78.8,523.3L112.1,523.3C116.5,523.3 120.2,519.7 120.2,515.2L120.2,481.9C120.1,477.4 116.5,473.8 112.1,473.8zM282,460.2L282,435.9C282,432.7 279.4,430 276.1,430L251.8,430C248.6,430 245.9,432.6 245.9,435.9L245.9,460.2C245.9,463.4 248.5,466.1 251.8,466.1L276.1,466.1C279.4,466.1 282,463.4 282,460.2zM230,493.4L164.6,493.4C155.9,493.4 148.7,500.5 148.7,509.3L148.7,574.7C148.7,583.4 155.8,590.6 164.6,590.6L230,590.6C238.7,590.6 245.9,583.5 245.9,574.7L245.9,509.3C245.8,500.6 238.7,493.4 230,493.4zM253.2,390L253.2,341.4C253.2,334.9 247.9,329.6 241.4,329.6L192.8,329.6C186.3,329.6 181,334.9 181,341.4L181,390C181,396.5 186.3,401.8 192.8,401.8L241.4,401.8C247.9,401.8 253.2,396.5 253.2,390z"
      fill="url(#paint0_linear)" id="svg_40" style="pointer-events:inherit"></path>
    <path stroke="null"
      d="M179.9,300.5C182,301.2 184.2,301.6 186.5,301.6L270.2,301.6C272.5,301.6 274.8,301.2 276.8,300.5L314.2,337.9C312.9,340.6 312.2,343.6 312.2,346.7L312.2,430.4C312.2,441.6 321.3,450.7 332.5,450.7L416.2,450.7C427.4,450.7 436.5,441.6 436.5,430.4L436.5,346.7C436.5,343.5 435.8,340.5 434.5,337.9L471.9,300.5C474,301.2 476.2,301.6 478.5,301.6L562.2,301.6C573.4,301.6 582.5,292.5 582.5,281.3L582.5,197.6C582.5,186.4 573.4,177.3 562.2,177.3L478.5,177.3C467.3,177.3 458.2,186.4 458.2,197.6L458.2,281.3C458.2,284.1 458.8,286.8 459.8,289.2L421.7,327.3C419.9,326.8 418.1,326.5 416.1,326.5L332.4,326.5C330.5,326.5 328.6,326.8 326.8,327.3L288.7,289.2C289.7,286.8 290.3,284.1 290.3,281.3L290.3,197.6C290.3,186.4 281.2,177.3 270,177.3L186.3,177.3C175.1,177.3 166,186.4 166,197.6L166,281.3C166,284.1 166.6,286.8 167.6,289.2L129.5,327.3C127.7,326.8 125.9,326.5 123.9,326.5L40.5,326.5C29.3,326.5 20.2,335.6 20.2,346.8L20.2,430.5C20.2,441.7 29.3,450.8 40.5,450.8L124.2,450.8C135.4,450.8 144.5,441.7 144.5,430.5L144.5,346.8C144.5,343.6 143.8,340.6 142.5,338L179.9,300.5z"
      fill="url(#paint1_linear)" id="svg_38" style="pointer-events:inherit"></path>
    <path stroke="null"
      d="M189.8,434.5C188.2,434.5 186.9,435.8 186.9,437.4L186.9,449.5C186.9,451.1 188.2,452.4 189.8,452.4L202,452.4C203.6,452.4 204.9,451.1 204.9,449.5L204.9,437.4C204.9,435.8 203.6,434.5 202,434.5L189.8,434.5z"
      fill="#25bcbd" id="svg_37" style="pointer-events:inherit"></path>
  </g>
</svg>